<svg width="50" height="46" viewBox="0 0 50 46" fill="none" xmlns="http://www.w3.org/2000/svg">
<path d="M14.7871 27.9453C13.8496 26.9688 12.8535 26.0703 11.7988 25.25C10.7441 24.3906 9.68945 23.5508 8.63477 22.7305C7.61914 21.8711 6.62305 20.9922 5.64648 20.0938C4.66992 19.1562 3.77148 18.1406 2.95117 17.0469C2.0918 15.9141 1.4082 14.6836 0.900391 13.3555C0.431641 11.9883 0.353516 10.582 0.666016 9.13672C0.978516 7.57422 1.74023 6.20703 2.95117 5.03516C4.16211 3.86328 5.4707 2.94531 6.87695 2.28125C8.40039 1.61719 9.94336 1.16797 11.5059 0.933594C13.0684 0.660156 14.6504 0.503906 16.252 0.464844C17.8535 0.386719 19.4551 0.386719 21.0566 0.464844C22.6973 0.503906 24.3184 0.484375 25.9199 0.40625C26.6621 0.367188 27.209 0.582031 27.5605 1.05078C27.9512 1.51953 28.1465 2.04688 28.1465 2.63281C28.1465 3.21875 27.9512 3.76563 27.5605 4.27344C27.209 4.74219 26.6621 4.99609 25.9199 5.03516C24.7871 5.11328 23.6543 5.15234 22.5215 5.15234C21.4277 5.11328 20.3145 5.07422 19.1816 5.03516C17.6582 4.99609 16.1152 5.01562 14.5527 5.09375C13.0293 5.17188 11.5254 5.48437 10.041 6.03125C9.5332 6.22656 8.98633 6.48047 8.40039 6.79297C7.81445 7.06641 7.26758 7.41797 6.75977 7.84766C6.29102 8.27734 5.90039 8.74609 5.58789 9.25391C5.27539 9.76172 5.13867 10.3086 5.17773 10.8945C5.2168 11.4414 5.35352 11.9883 5.58789 12.5352C5.82227 13.043 6.11523 13.5508 6.4668 14.0586C6.85742 14.5664 7.26758 15.0547 7.69727 15.5234C8.12695 15.9922 8.53711 16.4219 8.92773 16.8125C9.82617 17.7109 10.7637 18.5312 11.7402 19.2734C12.7168 20.0156 13.6934 20.7773 14.6699 21.5586C15.6855 22.3789 16.7012 23.2969 17.7168 24.3125C18.7715 25.2891 19.6699 26.3633 20.4121 27.5352C21.1934 28.668 21.7598 29.8789 22.1113 31.168C22.502 32.457 22.5605 33.8242 22.2871 35.2695C22.0137 36.6367 21.4863 37.8086 20.7051 38.7852C19.9629 39.7227 19.0645 40.582 18.0098 41.3633C16.9941 42.1055 15.9004 42.7891 14.7285 43.4141C13.5957 44 12.502 44.6055 11.4473 45.2305C10.7832 45.6211 10.1582 45.6992 9.57227 45.4648C9.02539 45.2305 8.5957 44.8594 8.2832 44.3516C8.00977 43.8438 7.89258 43.2969 7.93164 42.7109C8.00977 42.0859 8.38086 41.5781 9.04492 41.1875C9.98242 40.6406 10.9199 40.1328 11.8574 39.6641C12.7949 39.1953 13.7129 38.668 14.6113 38.082C15.4707 37.5352 16.2129 36.8906 16.8379 36.1484C17.502 35.3672 17.834 34.4688 17.834 33.4531C17.7949 32.4375 17.4629 31.4609 16.8379 30.5234C16.252 29.5859 15.5684 28.7266 14.7871 27.9453ZM28.123 36.4062C27.373 34.5938 26.8574 32.7344 26.5762 30.8281C26.4199 29.7344 26.2793 28.6406 26.1543 27.5469C26.0605 26.4219 26.1699 25.3125 26.4824 24.2188C26.6387 23.5312 26.8418 22.875 27.0918 22.25C27.3418 21.5938 27.5918 20.9375 27.8418 20.2812C28.0293 19.7812 28.1543 19.2812 28.2168 18.7812C28.3105 18.2812 28.4355 17.7656 28.5918 17.2344C28.9043 16.1094 29.373 15.1406 29.998 14.3281C30.623 13.4844 31.4512 12.7969 32.4824 12.2656C33.4512 11.7344 34.4512 11.3125 35.4824 11C36.5137 10.6875 37.5605 10.4375 38.623 10.25C39.5918 10.0625 40.5605 9.92188 41.5293 9.82812C42.5293 9.73438 43.5293 9.75 44.5293 9.875C45.0605 9.9375 45.498 10.125 45.8418 10.4375C46.2168 10.75 46.4043 11.1719 46.4043 11.7031C46.4043 12.1719 46.2168 12.625 45.8418 13.0625C45.498 13.4687 45.0605 13.6406 44.5293 13.5781C44.4355 13.5781 44.3418 13.5781 44.248 13.5781C44.1543 13.5469 44.0605 13.5312 43.9668 13.5312C43.0293 13.4687 42.0762 13.5 41.1074 13.625C40.1699 13.7188 39.248 13.875 38.3418 14.0938C37.8105 14.25 37.2793 14.4062 36.748 14.5625C36.2168 14.6875 35.7012 14.8594 35.2012 15.0781C34.8574 15.2344 34.5137 15.4062 34.1699 15.5938C33.9199 15.7187 33.748 15.8281 33.6543 15.9219C33.0605 16.4219 32.6699 16.8906 32.4824 17.3281C32.2949 17.7656 32.1387 18.2344 32.0137 18.7344C31.9199 19.2031 31.8262 19.6875 31.7324 20.1875C31.6387 20.6875 31.5137 21.1562 31.3574 21.5938C31.1074 22.2188 30.8574 22.8594 30.6074 23.5156C30.3574 24.1719 30.1543 24.8438 29.998 25.5312C29.9043 26 29.873 26.4688 29.9043 26.9375C29.9355 27.4062 29.9824 27.875 30.0449 28.3438C30.1074 29.1562 30.2012 30 30.3262 30.875C30.4824 31.75 30.6855 32.5938 30.9355 33.4062C31.1855 34.2188 31.5137 35 31.9199 35.75C32.3574 36.4688 32.8887 37.1094 33.5137 37.6719C34.2949 38.3281 35.1855 38.8125 36.1855 39.125C37.1855 39.4062 38.1855 39.6094 39.1855 39.7344C40.4355 39.9219 41.6543 39.9375 42.8418 39.7812C44.0293 39.625 45.1543 39.1875 46.2168 38.4688C46.7168 38.1562 47.1855 38.0938 47.623 38.2812C48.0918 38.4375 48.4355 38.7188 48.6543 39.125C48.9043 39.5 48.998 39.9531 48.9355 40.4844C48.9043 40.9844 48.6387 41.3906 48.1387 41.7031C46.6387 42.7031 45.0293 43.2969 43.3105 43.4844C41.623 43.6406 39.9199 43.5938 38.2012 43.3438C37.0449 43.1875 35.9199 42.9531 34.8262 42.6406C33.7324 42.2969 32.7168 41.7656 31.7793 41.0469C30.1543 39.8594 28.9355 38.3125 28.123 36.4062Z" fill="#A04EF6"/>
</svg>
